HIERARCHY
ROOT joint_Root
{
	OFFSET 0.0 0.0 0.0
	CHANNELS 6 Xposition Yposition Zposition Zrotation Xrotation Yrotation 
	JOINT Hips
	{
		OFFSET 4.5925 91.4895 -427.239
		CHANNELS 6 Xposition Yposition Zposition Zrotation Xrotation Yrotation 
		JOINT Spine
		{
			OFFSET 15.7357 0.0 0.0
			CHANNELS 6 Xposition Yposition Zposition Zrotation Xrotation Yrotation 
			JOINT Chest
			{
				OFFSET 8.98455 -0.406207 0.0
				CHANNELS 6 Xposition Yposition Zposition Zrotation Xrotation Yrotation 
				JOINT Neck
				{
					OFFSET 16.3773 0.0 0.0
					CHANNELS 6 Xposition Yposition Zposition Zrotation Xrotation Yrotation 
					JOINT Head
					{
						OFFSET 6.45672 0.0 0.0
						CHANNELS 6 Xposition Yposition Zposition Zrotation Xrotation Yrotation 
						End Site
						{
							OFFSET 0.0 0.0 0.0
						}
					}
				}
				JOINT Shoulder_L
				{
					OFFSET 12.9942 -0.242716 4.98039
					CHANNELS 6 Xposition Yposition Zposition Zrotation Xrotation Yrotation 
					JOINT UpperArm_L
					{
						OFFSET 5.34809 0.0 0.0
						CHANNELS 6 Xposition Yposition Zposition Zrotation Xrotation Yrotation 
						JOINT LowerArm_L
						{
							OFFSET 24.3286 1.87007e-05 0.0
							CHANNELS 6 Xposition Yposition Zposition Zrotation Xrotation Yrotation 
							JOINT Hand_L
							{
								OFFSET 22.2916 0.0 0.0
								CHANNELS 6 Xposition Yposition Zposition Zrotation Xrotation Yrotation 
								End Site
								{
									OFFSET 0.0 0.0 0.0
								}
							}
						}
					}
				}
				JOINT Shoulder_R
				{
					OFFSET 12.9945 -0.242716 -4.98039
					CHANNELS 6 Xposition Yposition Zposition Zrotation Xrotation Yrotation 
					JOINT UpperArm_R
					{
						OFFSET -5.34813 0.0 0.0
						CHANNELS 6 Xposition Yposition Zposition Zrotation Xrotation Yrotation 
						JOINT LowerArm_R
						{
							OFFSET -24.3289 0.000322201 0.0
							CHANNELS 6 Xposition Yposition Zposition Zrotation Xrotation Yrotation 
							JOINT Hand_R
							{
								OFFSET -22.2915 -0.000108084 0.0
								CHANNELS 6 Xposition Yposition Zposition Zrotation Xrotation Yrotation 
								End Site
								{
									OFFSET 0.0 0.0 0.0
								}
							}
						}
					}
				}
			}
		}
		JOINT UpperLeg_L
		{
			OFFSET -2.19248 -6.46944 0.0
			CHANNELS 6 Xposition Yposition Zposition Zrotation Xrotation Yrotation 
			JOINT LowerLeg_L
			{
				OFFSET 39.0811 0.0 -1.23785e-05
				CHANNELS 6 Xposition Yposition Zposition Zrotation Xrotation Yrotation 
				JOINT Foot_L
				{
					OFFSET 40.9854 0.0 -1.26872e-05
					CHANNELS 6 Xposition Yposition Zposition Zrotation Xrotation Yrotation 
					JOINT Toes_L
					{
						OFFSET 11.7543 0.0 0.0
						CHANNELS 6 Xposition Yposition Zposition Zrotation Xrotation Yrotation 
						End Site
						{
							OFFSET 0.0 0.0 0.0
						}
					}
				}
			}
		}
		JOINT UpperLeg_R
		{
			OFFSET -2.19251 6.46944 0.0
			CHANNELS 6 Xposition Yposition Zposition Zrotation Xrotation Yrotation 
			JOINT LowerLeg_R
			{
				OFFSET -39.0811 -0.00228153 -0.0401928
				CHANNELS 6 Xposition Yposition Zposition Zrotation Xrotation Yrotation 
				JOINT Foot_R
				{
					OFFSET -40.9854 0.0 0.0
					CHANNELS 6 Xposition Yposition Zposition Zrotation Xrotation Yrotation 
					JOINT Toes_R
					{
						OFFSET -11.7543 0.0 0.0
						CHANNELS 6 Xposition Yposition Zposition Zrotation Xrotation Yrotation 
						End Site
						{
							OFFSET 0.0 0.0 0.0
						}
					}
				}
			}
		}
	}
}
MOTION
Frames:	8
Frame Time:	0.0333333
0.000000 0.000000 0.000000 0.000000 0.000000 -0.000000 2.019700 91.508500 0.862847 88.942500 -11.600400 4.134620 15.735700 0.000005 -0.000001 78.916500 84.704500 -76.305300 8.984550 -0.406207 -0.000000 2.683510 -2.149910 5.267960 16.377300 -0.000001 -0.000001 7.928670 -0.341442 -5.202510 6.456720 -0.000001 -0.000000 0.556536 -0.797310 -5.020240 12.994200 -0.242716 4.980390 -85.414900 -9.085790 -63.076700 5.348090 -0.000007 -0.000001 -31.826100 -54.513800 -65.772500 24.328600 0.000019 0.000005 16.662600 5.614370 -71.902500 22.291600 -0.000001 0.000005 27.014700 5.247340 1.502220 12.994500 -0.242716 -4.980390 87.912200 8.326780 -75.870800 -5.348130 -0.000001 -0.000004 -57.979300 24.051100 -9.225640 -24.328900 0.000322 -0.000009 0.915362 2.238710 -22.268700 -22.291500 -0.000108 -0.000004 15.648700 5.400520 -2.954300 -2.192480 -6.469440 -0.000000 -176.032000 -23.258500 -2.291460 39.081100 -0.000007 -0.000012 -0.109763 0.219606 26.556800 40.985400 -0.000006 -0.000013 2.730430 7.954200 -69.840500 11.754300 -0.000000 0.000003 -0.000069 -0.000751 -16.606600 -2.192510 6.469440 -0.000001 174.977000 19.536800 175.355000 -39.081100 -0.002282 -0.040193 -0.099933 0.208868 26.303200 -40.985400 0.000008 0.000006 3.766740 20.452800 -67.759800 -11.754300 -0.000006 -0.000006 -0.000910 -0.014125 -17.147600
0.000000 0.000000 0.000000 0.000000 0.000000 -0.000000 1.797480 91.524300 0.858237 89.094700 -10.520200 4.179520 15.735700 0.000005 -0.000001 79.049000 84.727700 -76.594200 8.984550 -0.406207 -0.000000 2.638200 -2.111170 4.953680 16.377300 -0.000001 -0.000001 7.552670 -0.716511 -4.687020 6.456720 -0.000001 -0.000000 0.554058 -0.926504 -4.931580 12.994200 -0.242716 4.980390 -86.250900 -7.720960 -64.000800 5.348090 -0.000007 -0.000001 -30.039200 -49.726500 -59.230000 24.328600 0.000019 0.000005 15.740500 3.285900 -78.509000 22.291600 -0.000001 0.000005 25.102200 5.257220 1.238010 12.994500 -0.242716 -4.980390 87.854700 8.488890 -75.761300 -5.348130 -0.000001 -0.000004 -58.635800 23.863100 -8.928290 -24.328900 0.000322 -0.000009 0.810281 1.978120 -22.306800 -22.291500 -0.000108 -0.000004 15.600200 5.402420 -3.016290 -2.192480 -6.469440 -0.000000 -176.017000 -22.858500 -2.310070 39.081100 -0.000007 -0.000012 -0.110065 0.221299 26.443900 40.985400 -0.000006 -0.000013 2.747290 8.637360 -69.698000 11.754300 -0.000000 0.000003 -0.000069 -0.000750 -16.606600 -2.192510 6.469440 -0.000001 174.892000 20.031900 175.585000 -39.081100 -0.002282 -0.040193 -0.106166 0.221762 26.273900 -40.985400 0.000008 0.000006 3.674410 19.907200 -67.844500 -11.754300 -0.000006 -0.000006 -0.000876 -0.013624 -17.127300
0.000000 0.000000 0.000000 0.000000 0.000000 -0.000000 1.595380 91.528100 0.855810 89.224900 -9.508550 4.279040 15.735700 0.000005 -0.000001 79.435000 84.719800 -77.123000 8.984550 -0.406207 -0.000000 2.662140 -2.037450 4.667210 16.377300 -0.000001 -0.000001 7.009300 -1.049420 -3.977220 6.456720 -0.000001 -0.000000 0.576345 -1.063740 -4.965470 12.994200 -0.242716 4.980390 -87.204300 -6.031970 -65.078200 5.348090 -0.000007 -0.000001 -28.129700 -43.467100 -51.864800 24.328600 0.000019 0.000005 15.456100 1.395960 -84.965000 22.291600 -0.000001 0.000005 23.479600 5.262740 1.095230 12.994500 -0.242716 -4.980390 87.824700 8.633690 -75.800100 -5.348130 -0.000001 -0.000004 -59.282500 24.012200 -8.583090 -24.328900 0.000322 -0.000009 0.647975 1.584100 -22.283400 -22.291500 -0.000108 -0.000004 15.627800 5.404280 -3.076970 -2.192480 -6.469440 -0.000000 -175.976000 -22.469900 -2.298040 39.081100 -0.000007 -0.000012 -0.109445 0.220405 26.407400 40.985400 -0.000006 -0.000013 2.768390 9.260870 -69.601200 11.754300 -0.000000 0.000003 -0.000073 -0.000783 -16.607800 -2.192510 6.469440 -0.000001 174.769000 20.559800 175.857000 -39.081100 -0.002282 -0.040193 -0.119213 0.248348 26.259600 -40.985400 0.000008 0.000006 3.407440 19.489600 -67.858600 -11.754300 -0.000006 -0.000006 -0.000680 -0.010744 -17.010300
0.000000 0.000000 0.000000 0.000000 0.000000 -0.000000 1.392360 91.527000 0.841167 89.257600 -8.545250 4.384150 15.735700 0.000005 -0.000001 80.021700 84.677200 -77.846500 8.984550 -0.406207 -0.000000 2.760370 -1.937870 4.393010 16.377300 -0.000001 -0.000001 6.317680 -1.423470 -3.117210 6.456720 -0.000001 -0.000000 0.571906 -1.176390 -4.908060 12.994200 -0.242716 4.980390 -88.246100 -3.998470 -66.296400 5.348090 -0.000007 -0.000001 -26.252800 -35.809900 -44.389500 24.328600 0.000019 0.000005 15.301200 -0.003735 -90.013800 22.291600 -0.000001 0.000005 22.091400 5.268650 0.928139 12.994500 -0.242716 -4.980390 87.775600 8.835290 -75.807900 -5.348130 -0.000001 -0.000004 -59.850500 24.503000 -8.401230 -24.328900 0.000322 -0.000009 0.540273 1.337720 -22.034000 -22.291500 -0.000108 -0.000004 15.459500 5.405480 -3.116260 -2.192480 -6.469440 -0.000000 -175.864000 -21.931400 -2.336070 39.081100 -0.000007 -0.000012 -0.109631 0.220164 26.471200 40.985400 -0.000006 -0.000013 2.747920 9.699180 -69.535100 11.754300 -0.000000 0.000003 -0.000075 -0.000808 -16.608700 -2.192510 6.469440 -0.000001 174.707000 21.282100 176.166000 -39.081100 -0.002282 -0.040193 -0.129680 0.270284 26.199000 -40.985400 0.000008 0.000006 3.105750 19.296100 -67.815800 -11.754300 -0.000006 -0.000006 -0.000434 -0.007016 -16.858800
0.000000 0.000000 0.000000 0.000000 0.000000 -0.000000 1.210310 91.518400 0.820498 89.258000 -7.692730 4.498330 15.735700 0.000005 -0.000001 80.664500 84.622400 -78.626500 8.984550 -0.406207 -0.000000 2.883830 -1.829740 4.118230 16.377300 -0.000001 -0.000001 5.615770 -1.831160 -2.171580 6.456720 -0.000001 -0.000000 0.509073 -1.292330 -4.787830 12.994200 -0.242716 4.980390 -89.300300 -1.688280 -67.495700 5.348090 -0.000007 -0.000001 -25.120500 -26.984100 -37.618000 24.328600 0.000019 0.000005 15.813000 -0.743137 -92.621100 22.291600 -0.000001 0.000005 20.071700 5.282420 0.560963 12.994500 -0.242716 -4.980390 87.744900 8.996670 -75.865700 -5.348130 -0.000001 -0.000004 -60.422600 25.199100 -8.217960 -24.328900 0.000322 -0.000009 0.471709 1.182480 -21.793700 -22.291500 -0.000108 -0.000004 15.204000 5.402990 -3.035530 -2.192480 -6.469440 -0.000000 -175.772000 -21.227500 -2.404450 39.081100 -0.000007 -0.000012 -0.111697 0.223088 26.596500 40.985400 -0.000006 -0.000013 2.682030 9.878500 -69.493300 11.754300 -0.000000 0.000003 -0.000079 -0.000845 -16.610100 -2.192510 6.469440 -0.000001 174.660000 21.899400 176.463000 -39.081100 -0.002282 -0.040193 -0.142203 0.295945 26.183100 -40.985400 0.000008 0.000006 2.975430 19.151400 -67.860100 -11.754300 -0.000006 -0.000006 -0.000510 -0.008189 -16.906400
0.000000 0.000000 0.000000 0.000000 0.000000 -0.000000 1.057280 91.510300 0.809020 89.260600 -7.012800 4.564770 15.735700 0.000005 -0.000001 81.297000 84.585300 -79.405000 8.984550 -0.406207 -0.000000 2.971060 -1.716120 3.824840 16.377300 -0.000001 -0.000001 4.937160 -2.133880 -1.201730 6.456720 -0.000001 -0.000000 0.404803 -1.443350 -4.642700 12.994200 -0.242716 4.980390 -90.178500 0.449656 -68.332800 5.348090 -0.000007 -0.000001 -25.480600 -17.133900 -31.995400 24.328600 0.000019 0.000005 16.817300 -0.635465 -92.103000 22.291600 -0.000001 0.000005 18.275800 5.293920 0.235891 12.994500 -0.242716 -4.980390 87.728100 9.161470 -76.008300 -5.348130 -0.000001 -0.000004 -60.983800 25.848700 -8.078590 -24.328900 0.000322 -0.000009 0.441816 1.129810 -21.406000 -22.291500 -0.000108 -0.000004 14.954500 5.399170 -2.910310 -2.192480 -6.469440 -0.000000 -175.729000 -20.587300 -2.490980 39.081100 -0.000007 -0.000012 -0.111818 0.222353 26.697300 40.985400 -0.000006 -0.000013 2.603070 9.923240 -69.458400 11.754300 -0.000000 0.000003 -0.000077 -0.000824 -16.609300 -2.192510 6.469440 -0.000001 174.663000 22.287800 176.653000 -39.081100 -0.002282 -0.040193 -0.149803 0.311514 26.174700 -40.985400 0.000008 0.000006 2.787540 18.898100 -67.864000 -11.754300 -0.000006 -0.000006 -0.000536 -0.008584 -16.922500
0.000000 0.000000 0.000000 0.000000 0.000000 -0.000000 0.943309 91.510300 0.809744 89.246300 -6.523640 4.592770 15.735700 0.000005 -0.000001 82.160600 84.555800 -80.420000 8.984550 -0.406207 -0.000000 3.047600 -1.555240 3.518970 16.377300 -0.000001 -0.000001 4.282160 -2.332320 -0.418715 6.456720 -0.000001 -0.000000 0.225552 -1.664750 -4.235920 12.994200 -0.242716 4.980390 -90.742200 1.916290 -68.822600 5.348090 -0.000007 -0.000001 -28.848700 -7.795130 -27.820200 24.328600 0.000019 0.000005 18.572400 0.476058 -88.586600 22.291600 -0.000001 0.000005 15.247400 5.303360 -0.025659 12.994500 -0.242716 -4.980390 87.725900 9.303270 -76.198800 -5.348130 -0.000001 -0.000004 -61.514900 26.410500 -7.942390 -24.328900 0.000322 -0.000009 0.384243 1.003260 -21.010500 -22.291500 -0.000108 -0.000004 14.756900 5.400430 -2.951370 -2.192480 -6.469440 -0.000000 -175.714000 -19.959800 -2.558940 39.081100 -0.000007 -0.000012 -0.112537 0.223405 26.736200 40.985400 -0.000006 -0.000013 2.494870 9.791980 -69.415100 11.754300 -0.000000 0.000003 -0.000081 -0.000861 -16.610700 -2.192510 6.469440 -0.000001 174.721000 22.506600 176.778000 -39.081100 -0.002282 -0.040193 -0.150632 0.313581 26.147300 -40.985400 0.000008 0.000006 2.758080 18.640500 -67.899500 -11.754300 -0.000006 -0.000006 -0.000316 -0.005163 -16.783500
0.000000 0.000000 0.000000 0.000000 0.000000 -0.000000 0.857071 91.511700 0.835912 89.281400 -6.113480 4.596530 15.735700 0.000005 -0.000001 82.883500 84.539800 -81.324500 8.984550 -0.406207 -0.000000 3.092160 -1.415020 3.153100 16.377300 -0.000001 -0.000001 3.815930 -2.505660 0.126969 6.456720 -0.000001 -0.000000 -0.055237 -1.932540 -3.576170 12.994200 -0.242716 4.980390 -91.093000 2.881360 -69.215500 5.348090 -0.000007 -0.000001 -33.668700 0.341288 -24.020800 24.328600 0.000019 0.000005 19.422400 2.399250 -83.230500 22.291600 -0.000001 0.000005 13.997800 5.301040 0.043972 12.994500 -0.242716 -4.980390 87.771700 9.317880 -76.486900 -5.348130 -0.000001 -0.000004 -62.207700 26.791100 -7.666420 -24.328900 0.000322 -0.000009 0.413419 1.094380 -20.745300 -22.291500 -0.000108 -0.000004 14.636400 5.399500 -2.921460 -2.192480 -6.469440 -0.000000 -175.881000 -18.886700 -2.646450 39.081100 -0.000007 -0.000012 -0.114217 0.226899 26.720100 40.985400 -0.000006 -0.000013 2.260110 9.071340 -69.340100 11.754300 -0.000000 0.000003 -0.000082 -0.000869 -16.611000 -2.192510 6.469440 -0.000001 174.682000 22.711100 176.900000 -39.081100 -0.002282 -0.040193 -0.156258 0.325426 26.120500 -40.985400 0.000008 0.000006 2.762830 18.497600 -67.973500 -11.754300 -0.000006 -0.000006 -0.000589 -0.009386 -16.955100
